<svg enable-background="new 0 0 469.31 469.31" height="512" viewBox="0 0 469.31 469.31" width="512" xmlns="http://www.w3.org/2000/svg"><g fill="#437dc4"><path d="m318.495 0h-167.685c-19.586 0-35.521 15.932-35.521 35.518v398.271c0 19.586 15.935 35.521 35.521 35.521h167.695c19.58 0 35.515-15.936 35.515-35.521v-398.271c-.005-19.586-15.939-35.518-35.525-35.518zm-167.685 11.85h167.695c12.029 0 21.886 9.062 23.363 20.705h-214.427c1.47-11.644 11.329-20.705 23.369-20.705zm191.354 421.938c0 13.051-10.618 23.669-23.669 23.669h-167.685c-13.051 0-23.668-10.618-23.668-23.669v-3.198h215.032v3.198zm0-9.125h-215.022v-386.182h215.032v386.182z"/><circle cx="160.669" cy="23.194" r="5.545"/><path d="m257.158 17.638h-44.696c-2.727 0-4.133 2.064-3.153 4.598l.143.358c.987 2.534 3.991 4.595 6.715 4.595h38.529c2.728 0 5.479-2.14 6.17-4.778.669-2.63-.981-4.773-3.708-4.773z"/></g></svg>